# xmcd
#
# Track frame offsets: 
#        183
#        15555
#        30970
#        43755
#        56528
#        69323
#        82958
#        94808
#        111458
#        123323
#        135910
#        148485
#        167143
#        179915
#        193925
#        206143
#        219045
#        237543
#        262293
#        279830
#        293660
#        307150
#
# Disc length: 4331 seconds
#
# Revision: 0
# Processed by: cddbd v1.4PL0 Copyright (c) Steve Scherf et al.
# Submitted via: ExactAudioCopy v0.90b3
#
DISCID=5210e916
DTITLE=Swamp Dogg - Total destruction of your mind Rat on
DYEAR=1991
DGENRE=Soul
TTITLE0=Total destruction of your mind
TTITLE1=Synthetic world
TTITLE2=Dust your head colour red
TTITLE3=Redneck
TTITLE4=If I die tomorrow (I've lived tonite)
TTITLE5=I was born blue
TTITLE6=Sal-a-faster
TTITLE7=The world beyond
TTITLE8=These are not my people
TTITLE9=Everything you'll ever need
TTITLE10=The baby is mine
TTITLE11=Mama's baby, daddy's maybe
TTITLE12=Do you believe
TTITLE13=Predicament #2
TTITLE14=Remember I said tomorrow
TTITLE15=Creeping away
TTITLE16=Got to get a message to you
TTITLE17=God bless america, for what
TTITLE18=I kissed your face
TTITLE19=That ain't my wife
TTITLE20=She even woke me up to say goodbye
TTITLE21=Do your thing together
EXTD=
EXTT0=
EXTT1=
EXTT2=
EXTT3=
EXTT4=
EXTT5=
EXTT6=
EXTT7=
EXTT8=
EXTT9=
EXTT10=
EXTT11=
EXTT12=
EXTT13=
EXTT14=
EXTT15=
EXTT16=
EXTT17=
EXTT18=
EXTT19=
EXTT20=
EXTT21=
PLAYORDER=
